<mxfile host="Electron" modified="2023-12-06T05:52:52.537Z" agent="Mozilla/5.0 (Windows NT 10.0; Win64; x64) AppleWebKit/537.36 (KHTML, like Gecko) draw.io/22.1.2 Chrome/114.0.5735.289 Electron/25.9.4 Safari/537.36" etag="zuozpfwem7iE_AaphTG9" version="22.1.2" type="device">
  <diagram name="Page-1" id="kKi_Sk6lP5XKtbWeCPbU">
    <mxGraphModel dx="5496" dy="3881" grid="1" gridSize="10" guides="1" tooltips="1" connect="1" arrows="1" fold="1" page="1" pageScale="1" pageWidth="4681" pageHeight="3300" math="0" shadow="0">
      <root>
        <mxCell id="0" />
        <mxCell id="1" parent="0" />
        <mxCell id="BeaeA4GzhIFNbfuau6xv-41" value="" style="edgeStyle=orthogonalEdgeStyle;rounded=0;sketch=1;hachureGap=4;jiggle=2;curveFitting=1;orthogonalLoop=1;jettySize=auto;html=1;fontFamily=Architects Daughter;fontSource=https%3A%2F%2Ffonts.googleapis.com%2Fcss%3Ffamily%3DArchitects%2BDaughter;fontSize=16;" edge="1" parent="1" source="BeaeA4GzhIFNbfuau6xv-37" target="BeaeA4GzhIFNbfuau6xv-40">
          <mxGeometry relative="1" as="geometry" />
        </mxCell>
        <mxCell id="BeaeA4GzhIFNbfuau6xv-37" value="" style="rounded=0;whiteSpace=wrap;html=1;sketch=1;hachureGap=4;jiggle=2;curveFitting=1;fontFamily=Architects Daughter;fontSource=https%3A%2F%2Ffonts.googleapis.com%2Fcss%3Ffamily%3DArchitects%2BDaughter;fontSize=20;" vertex="1" parent="1">
          <mxGeometry x="90" y="1090" width="520" height="140" as="geometry" />
        </mxCell>
        <mxCell id="BeaeA4GzhIFNbfuau6xv-4" value="" style="edgeStyle=orthogonalEdgeStyle;rounded=0;sketch=1;hachureGap=4;jiggle=2;curveFitting=1;orthogonalLoop=1;jettySize=auto;html=1;fontFamily=Architects Daughter;fontSource=https%3A%2F%2Ffonts.googleapis.com%2Fcss%3Ffamily%3DArchitects%2BDaughter;fontSize=16;" edge="1" parent="1" source="BeaeA4GzhIFNbfuau6xv-1" target="BeaeA4GzhIFNbfuau6xv-3">
          <mxGeometry relative="1" as="geometry">
            <Array as="points">
              <mxPoint x="275" y="315" />
              <mxPoint x="275" y="190" />
            </Array>
          </mxGeometry>
        </mxCell>
        <mxCell id="BeaeA4GzhIFNbfuau6xv-16" value="" style="edgeStyle=orthogonalEdgeStyle;rounded=0;hachureGap=4;orthogonalLoop=1;jettySize=auto;html=1;fontFamily=Architects Daughter;fontSource=https%3A%2F%2Ffonts.googleapis.com%2Fcss%3Ffamily%3DArchitects%2BDaughter;fontSize=16;endArrow=none;endFill=0;sketch=1;curveFitting=1;jiggle=2;fixDash=0;startArrow=classic;startFill=1;" edge="1" parent="1" source="BeaeA4GzhIFNbfuau6xv-1" target="BeaeA4GzhIFNbfuau6xv-15">
          <mxGeometry relative="1" as="geometry" />
        </mxCell>
        <mxCell id="BeaeA4GzhIFNbfuau6xv-1" value="APP" style="rounded=0;whiteSpace=wrap;html=1;sketch=1;hachureGap=4;jiggle=2;curveFitting=1;fontFamily=Architects Daughter;fontSource=https%3A%2F%2Ffonts.googleapis.com%2Fcss%3Ffamily%3DArchitects%2BDaughter;fontSize=20;" vertex="1" parent="1">
          <mxGeometry x="110" y="270" width="120" height="110" as="geometry" />
        </mxCell>
        <mxCell id="BeaeA4GzhIFNbfuau6xv-6" value="" style="edgeStyle=orthogonalEdgeStyle;rounded=0;sketch=1;hachureGap=4;jiggle=2;curveFitting=1;orthogonalLoop=1;jettySize=auto;html=1;fontFamily=Architects Daughter;fontSource=https%3A%2F%2Ffonts.googleapis.com%2Fcss%3Ffamily%3DArchitects%2BDaughter;fontSize=16;" edge="1" parent="1" source="BeaeA4GzhIFNbfuau6xv-3" target="BeaeA4GzhIFNbfuau6xv-5">
          <mxGeometry relative="1" as="geometry">
            <Array as="points">
              <mxPoint x="480" y="190" />
              <mxPoint x="480" y="255" />
            </Array>
          </mxGeometry>
        </mxCell>
        <mxCell id="BeaeA4GzhIFNbfuau6xv-3" value="QUEUE" style="whiteSpace=wrap;html=1;fontSize=20;fontFamily=Architects Daughter;rounded=0;sketch=1;hachureGap=4;jiggle=2;curveFitting=1;fontSource=https%3A%2F%2Ffonts.googleapis.com%2Fcss%3Ffamily%3DArchitects%2BDaughter;" vertex="1" parent="1">
          <mxGeometry x="320" y="120" width="120" height="270" as="geometry" />
        </mxCell>
        <mxCell id="BeaeA4GzhIFNbfuau6xv-19" style="edgeStyle=orthogonalEdgeStyle;rounded=0;sketch=1;hachureGap=4;jiggle=2;curveFitting=1;orthogonalLoop=1;jettySize=auto;html=1;exitX=0;exitY=0.75;exitDx=0;exitDy=0;entryX=1;entryY=0.5;entryDx=0;entryDy=0;fontFamily=Architects Daughter;fontSource=https%3A%2F%2Ffonts.googleapis.com%2Fcss%3Ffamily%3DArchitects%2BDaughter;fontSize=16;" edge="1" parent="1" source="BeaeA4GzhIFNbfuau6xv-5" target="BeaeA4GzhIFNbfuau6xv-13">
          <mxGeometry relative="1" as="geometry" />
        </mxCell>
        <mxCell id="BeaeA4GzhIFNbfuau6xv-5" value="APP" style="whiteSpace=wrap;html=1;fontSize=20;fontFamily=Architects Daughter;rounded=0;sketch=1;hachureGap=4;jiggle=2;curveFitting=1;fontSource=https%3A%2F%2Ffonts.googleapis.com%2Fcss%3Ffamily%3DArchitects%2BDaughter;" vertex="1" parent="1">
          <mxGeometry x="520" y="180" width="120" height="150" as="geometry" />
        </mxCell>
        <mxCell id="BeaeA4GzhIFNbfuau6xv-9" style="edgeStyle=orthogonalEdgeStyle;rounded=0;sketch=1;hachureGap=4;jiggle=2;curveFitting=1;orthogonalLoop=1;jettySize=auto;html=1;exitX=1;exitY=0.5;exitDx=0;exitDy=0;fontFamily=Architects Daughter;fontSource=https%3A%2F%2Ffonts.googleapis.com%2Fcss%3Ffamily%3DArchitects%2BDaughter;fontSize=16;" edge="1" parent="1" source="BeaeA4GzhIFNbfuau6xv-7" target="BeaeA4GzhIFNbfuau6xv-8">
          <mxGeometry relative="1" as="geometry" />
        </mxCell>
        <mxCell id="BeaeA4GzhIFNbfuau6xv-7" value="APP" style="rounded=0;whiteSpace=wrap;html=1;sketch=1;hachureGap=4;jiggle=2;curveFitting=1;fontFamily=Architects Daughter;fontSource=https%3A%2F%2Ffonts.googleapis.com%2Fcss%3Ffamily%3DArchitects%2BDaughter;fontSize=20;" vertex="1" parent="1">
          <mxGeometry x="130" y="440" width="120" height="110" as="geometry" />
        </mxCell>
        <mxCell id="BeaeA4GzhIFNbfuau6xv-10" style="edgeStyle=orthogonalEdgeStyle;rounded=0;sketch=1;hachureGap=4;jiggle=2;curveFitting=1;orthogonalLoop=1;jettySize=auto;html=1;exitX=0;exitY=0.75;exitDx=0;exitDy=0;entryX=1;entryY=0.75;entryDx=0;entryDy=0;fontFamily=Architects Daughter;fontSource=https%3A%2F%2Ffonts.googleapis.com%2Fcss%3Ffamily%3DArchitects%2BDaughter;fontSize=16;" edge="1" parent="1" source="BeaeA4GzhIFNbfuau6xv-8" target="BeaeA4GzhIFNbfuau6xv-7">
          <mxGeometry relative="1" as="geometry" />
        </mxCell>
        <mxCell id="BeaeA4GzhIFNbfuau6xv-8" value="APP" style="whiteSpace=wrap;html=1;fontSize=20;fontFamily=Architects Daughter;rounded=0;sketch=1;hachureGap=4;jiggle=2;curveFitting=1;fontSource=https%3A%2F%2Ffonts.googleapis.com%2Fcss%3Ffamily%3DArchitects%2BDaughter;" vertex="1" parent="1">
          <mxGeometry x="390" y="420" width="120" height="150" as="geometry" />
        </mxCell>
        <mxCell id="BeaeA4GzhIFNbfuau6xv-11" value="APP" style="rounded=0;whiteSpace=wrap;html=1;sketch=1;hachureGap=4;jiggle=2;curveFitting=1;fontFamily=Architects Daughter;fontSource=https%3A%2F%2Ffonts.googleapis.com%2Fcss%3Ffamily%3DArchitects%2BDaughter;fontSize=20;" vertex="1" parent="1">
          <mxGeometry x="110" y="130" width="120" height="110" as="geometry" />
        </mxCell>
        <mxCell id="BeaeA4GzhIFNbfuau6xv-21" style="edgeStyle=orthogonalEdgeStyle;rounded=0;sketch=1;hachureGap=4;jiggle=2;curveFitting=1;orthogonalLoop=1;jettySize=auto;html=1;exitX=1;exitY=0.25;exitDx=0;exitDy=0;fontFamily=Architects Daughter;fontSource=https%3A%2F%2Ffonts.googleapis.com%2Fcss%3Ffamily%3DArchitects%2BDaughter;fontSize=16;" edge="1" parent="1" source="BeaeA4GzhIFNbfuau6xv-12" target="BeaeA4GzhIFNbfuau6xv-20">
          <mxGeometry relative="1" as="geometry" />
        </mxCell>
        <mxCell id="BeaeA4GzhIFNbfuau6xv-22" value="" style="edgeStyle=orthogonalEdgeStyle;rounded=0;sketch=1;hachureGap=4;jiggle=2;curveFitting=1;orthogonalLoop=1;jettySize=auto;html=1;fontFamily=Architects Daughter;fontSource=https%3A%2F%2Ffonts.googleapis.com%2Fcss%3Ffamily%3DArchitects%2BDaughter;fontSize=16;" edge="1" parent="1" source="BeaeA4GzhIFNbfuau6xv-12" target="BeaeA4GzhIFNbfuau6xv-5">
          <mxGeometry relative="1" as="geometry" />
        </mxCell>
        <mxCell id="BeaeA4GzhIFNbfuau6xv-12" value="Request" style="rounded=0;whiteSpace=wrap;html=1;sketch=1;hachureGap=4;jiggle=2;curveFitting=1;fontFamily=Architects Daughter;fontSource=https%3A%2F%2Ffonts.googleapis.com%2Fcss%3Ffamily%3DArchitects%2BDaughter;fontSize=20;" vertex="1" parent="1">
          <mxGeometry x="320" y="160" width="120" height="50" as="geometry" />
        </mxCell>
        <mxCell id="BeaeA4GzhIFNbfuau6xv-13" value="Response" style="rounded=0;whiteSpace=wrap;html=1;sketch=1;hachureGap=4;jiggle=2;curveFitting=1;fontFamily=Architects Daughter;fontSource=https%3A%2F%2Ffonts.googleapis.com%2Fcss%3Ffamily%3DArchitects%2BDaughter;fontSize=20;" vertex="1" parent="1">
          <mxGeometry x="320" y="290" width="120" height="50" as="geometry" />
        </mxCell>
        <mxCell id="BeaeA4GzhIFNbfuau6xv-15" value="" style="shape=singleArrow;whiteSpace=wrap;html=1;arrowWidth=0.4;arrowSize=0.4;fontSize=20;fontFamily=Architects Daughter;rounded=0;sketch=1;hachureGap=4;jiggle=2;curveFitting=1;fontSource=https%3A%2F%2Ffonts.googleapis.com%2Fcss%3Ffamily%3DArchitects%2BDaughter;" vertex="1" parent="1">
          <mxGeometry x="-70" y="285" width="80" height="60" as="geometry" />
        </mxCell>
        <mxCell id="BeaeA4GzhIFNbfuau6xv-20" value="APP" style="whiteSpace=wrap;html=1;fontSize=20;fontFamily=Architects Daughter;rounded=0;sketch=1;hachureGap=4;jiggle=2;curveFitting=1;fontSource=https%3A%2F%2Ffonts.googleapis.com%2Fcss%3Ffamily%3DArchitects%2BDaughter;" vertex="1" parent="1">
          <mxGeometry x="530" y="-30" width="120" height="150" as="geometry" />
        </mxCell>
        <mxCell id="BeaeA4GzhIFNbfuau6xv-26" value="" style="edgeStyle=orthogonalEdgeStyle;rounded=0;sketch=1;hachureGap=4;jiggle=2;curveFitting=1;orthogonalLoop=1;jettySize=auto;html=1;fontFamily=Architects Daughter;fontSource=https%3A%2F%2Ffonts.googleapis.com%2Fcss%3Ffamily%3DArchitects%2BDaughter;fontSize=16;" edge="1" parent="1" source="BeaeA4GzhIFNbfuau6xv-24" target="BeaeA4GzhIFNbfuau6xv-25">
          <mxGeometry relative="1" as="geometry" />
        </mxCell>
        <mxCell id="BeaeA4GzhIFNbfuau6xv-28" style="edgeStyle=orthogonalEdgeStyle;rounded=0;sketch=1;hachureGap=4;jiggle=2;curveFitting=1;orthogonalLoop=1;jettySize=auto;html=1;exitX=1;exitY=0.5;exitDx=0;exitDy=0;entryX=0;entryY=0.5;entryDx=0;entryDy=0;fontFamily=Architects Daughter;fontSource=https%3A%2F%2Ffonts.googleapis.com%2Fcss%3Ffamily%3DArchitects%2BDaughter;fontSize=16;" edge="1" parent="1" source="BeaeA4GzhIFNbfuau6xv-24" target="BeaeA4GzhIFNbfuau6xv-27">
          <mxGeometry relative="1" as="geometry" />
        </mxCell>
        <mxCell id="BeaeA4GzhIFNbfuau6xv-24" value="QUEUE" style="rounded=0;whiteSpace=wrap;html=1;sketch=1;hachureGap=4;jiggle=2;curveFitting=1;fontFamily=Architects Daughter;fontSource=https%3A%2F%2Ffonts.googleapis.com%2Fcss%3Ffamily%3DArchitects%2BDaughter;fontSize=20;" vertex="1" parent="1">
          <mxGeometry x="270" y="700" width="110" height="60" as="geometry" />
        </mxCell>
        <mxCell id="BeaeA4GzhIFNbfuau6xv-25" value="CONSUMER" style="rounded=0;whiteSpace=wrap;html=1;sketch=1;hachureGap=4;jiggle=2;curveFitting=1;fontFamily=Architects Daughter;fontSource=https%3A%2F%2Ffonts.googleapis.com%2Fcss%3Ffamily%3DArchitects%2BDaughter;fontSize=20;" vertex="1" parent="1">
          <mxGeometry x="450" y="620" width="110" height="60" as="geometry" />
        </mxCell>
        <mxCell id="BeaeA4GzhIFNbfuau6xv-27" value="CONSUMER" style="rounded=0;whiteSpace=wrap;html=1;sketch=1;hachureGap=4;jiggle=2;curveFitting=1;fontFamily=Architects Daughter;fontSource=https%3A%2F%2Ffonts.googleapis.com%2Fcss%3Ffamily%3DArchitects%2BDaughter;fontSize=20;" vertex="1" parent="1">
          <mxGeometry x="460" y="740" width="110" height="60" as="geometry" />
        </mxCell>
        <mxCell id="BeaeA4GzhIFNbfuau6xv-29" value="" style="edgeStyle=orthogonalEdgeStyle;rounded=0;sketch=1;hachureGap=4;jiggle=2;curveFitting=1;orthogonalLoop=1;jettySize=auto;html=1;fontFamily=Architects Daughter;fontSource=https%3A%2F%2Ffonts.googleapis.com%2Fcss%3Ffamily%3DArchitects%2BDaughter;fontSize=16;" edge="1" parent="1" source="BeaeA4GzhIFNbfuau6xv-31" target="BeaeA4GzhIFNbfuau6xv-32">
          <mxGeometry relative="1" as="geometry" />
        </mxCell>
        <mxCell id="BeaeA4GzhIFNbfuau6xv-30" style="edgeStyle=orthogonalEdgeStyle;rounded=0;sketch=1;hachureGap=4;jiggle=2;curveFitting=1;orthogonalLoop=1;jettySize=auto;html=1;exitX=1;exitY=0.5;exitDx=0;exitDy=0;entryX=0;entryY=0.5;entryDx=0;entryDy=0;fontFamily=Architects Daughter;fontSource=https%3A%2F%2Ffonts.googleapis.com%2Fcss%3Ffamily%3DArchitects%2BDaughter;fontSize=16;" edge="1" parent="1" source="BeaeA4GzhIFNbfuau6xv-31" target="BeaeA4GzhIFNbfuau6xv-33">
          <mxGeometry relative="1" as="geometry" />
        </mxCell>
        <mxCell id="BeaeA4GzhIFNbfuau6xv-31" value="TOPIC" style="rounded=0;whiteSpace=wrap;html=1;sketch=1;hachureGap=4;jiggle=2;curveFitting=1;fontFamily=Architects Daughter;fontSource=https%3A%2F%2Ffonts.googleapis.com%2Fcss%3Ffamily%3DArchitects%2BDaughter;fontSize=20;" vertex="1" parent="1">
          <mxGeometry x="280" y="890" width="110" height="60" as="geometry" />
        </mxCell>
        <mxCell id="BeaeA4GzhIFNbfuau6xv-32" value="CONSUMER" style="rounded=0;whiteSpace=wrap;html=1;sketch=1;hachureGap=4;jiggle=2;curveFitting=1;fontFamily=Architects Daughter;fontSource=https%3A%2F%2Ffonts.googleapis.com%2Fcss%3Ffamily%3DArchitects%2BDaughter;fontSize=20;" vertex="1" parent="1">
          <mxGeometry x="470" y="810" width="110" height="60" as="geometry" />
        </mxCell>
        <mxCell id="BeaeA4GzhIFNbfuau6xv-33" value="CONSUMER" style="rounded=0;whiteSpace=wrap;html=1;sketch=1;hachureGap=4;jiggle=2;curveFitting=1;fontFamily=Architects Daughter;fontSource=https%3A%2F%2Ffonts.googleapis.com%2Fcss%3Ffamily%3DArchitects%2BDaughter;fontSize=20;" vertex="1" parent="1">
          <mxGeometry x="480" y="930" width="110" height="60" as="geometry" />
        </mxCell>
        <mxCell id="BeaeA4GzhIFNbfuau6xv-34" value="1" style="rounded=0;whiteSpace=wrap;html=1;sketch=1;hachureGap=4;jiggle=2;curveFitting=1;fontFamily=Architects Daughter;fontSource=https%3A%2F%2Ffonts.googleapis.com%2Fcss%3Ffamily%3DArchitects%2BDaughter;fontSize=20;" vertex="1" parent="1">
          <mxGeometry x="130" y="1130" width="40" height="60" as="geometry" />
        </mxCell>
        <mxCell id="BeaeA4GzhIFNbfuau6xv-35" value="2" style="rounded=0;whiteSpace=wrap;html=1;sketch=1;hachureGap=4;jiggle=2;curveFitting=1;fontFamily=Architects Daughter;fontSource=https%3A%2F%2Ffonts.googleapis.com%2Fcss%3Ffamily%3DArchitects%2BDaughter;fontSize=20;" vertex="1" parent="1">
          <mxGeometry x="190" y="1130" width="40" height="60" as="geometry" />
        </mxCell>
        <mxCell id="BeaeA4GzhIFNbfuau6xv-36" value="3" style="rounded=0;whiteSpace=wrap;html=1;sketch=1;hachureGap=4;jiggle=2;curveFitting=1;fontFamily=Architects Daughter;fontSource=https%3A%2F%2Ffonts.googleapis.com%2Fcss%3Ffamily%3DArchitects%2BDaughter;fontSize=20;" vertex="1" parent="1">
          <mxGeometry x="250" y="1130" width="40" height="60" as="geometry" />
        </mxCell>
        <mxCell id="BeaeA4GzhIFNbfuau6xv-38" value="SEGMENT" style="text;html=1;align=center;verticalAlign=middle;resizable=0;points=[];autosize=1;strokeColor=none;fillColor=none;fontSize=20;fontFamily=Architects Daughter;" vertex="1" parent="1">
          <mxGeometry x="180" y="1023" width="120" height="40" as="geometry" />
        </mxCell>
        <mxCell id="BeaeA4GzhIFNbfuau6xv-39" value="current_offset : 3" style="text;html=1;align=center;verticalAlign=middle;resizable=0;points=[];autosize=1;strokeColor=none;fillColor=none;fontSize=20;fontFamily=Architects Daughter;" vertex="1" parent="1">
          <mxGeometry x="230" y="1043" width="200" height="40" as="geometry" />
        </mxCell>
        <mxCell id="BeaeA4GzhIFNbfuau6xv-40" value="PRODUCER" style="whiteSpace=wrap;html=1;fontSize=20;fontFamily=Architects Daughter;rounded=0;sketch=1;hachureGap=4;jiggle=2;curveFitting=1;fontSource=https%3A%2F%2Ffonts.googleapis.com%2Fcss%3Ffamily%3DArchitects%2BDaughter;" vertex="1" parent="1">
          <mxGeometry x="-170" y="1130" width="120" height="60" as="geometry" />
        </mxCell>
        <mxCell id="BeaeA4GzhIFNbfuau6xv-42" value="100" style="rounded=0;whiteSpace=wrap;html=1;sketch=1;hachureGap=4;jiggle=2;curveFitting=1;fontFamily=Architects Daughter;fontSource=https%3A%2F%2Ffonts.googleapis.com%2Fcss%3Ffamily%3DArchitects%2BDaughter;fontSize=20;" vertex="1" parent="1">
          <mxGeometry x="550" y="1140" width="40" height="60" as="geometry" />
        </mxCell>
        <mxCell id="BeaeA4GzhIFNbfuau6xv-43" value="00000000000000000.log&lt;br&gt;" style="text;html=1;align=center;verticalAlign=middle;resizable=0;points=[];autosize=1;strokeColor=none;fillColor=none;fontSize=20;fontFamily=Architects Daughter;" vertex="1" parent="1">
          <mxGeometry x="235" y="993" width="270" height="40" as="geometry" />
        </mxCell>
        <mxCell id="BeaeA4GzhIFNbfuau6xv-44" value="4" style="rounded=0;whiteSpace=wrap;html=1;sketch=1;hachureGap=4;jiggle=2;curveFitting=1;fontFamily=Architects Daughter;fontSource=https%3A%2F%2Ffonts.googleapis.com%2Fcss%3Ffamily%3DArchitects%2BDaughter;fontSize=20;" vertex="1" parent="1">
          <mxGeometry x="310" y="1130" width="40" height="60" as="geometry" />
        </mxCell>
        <mxCell id="BeaeA4GzhIFNbfuau6xv-45" value="At least One&lt;br&gt;At most One&lt;br&gt;Exactly One" style="text;html=1;align=center;verticalAlign=middle;resizable=0;points=[];autosize=1;strokeColor=none;fillColor=none;fontSize=20;fontFamily=Architects Daughter;" vertex="1" parent="1">
          <mxGeometry x="-180" y="978" width="140" height="90" as="geometry" />
        </mxCell>
        <mxCell id="BeaeA4GzhIFNbfuau6xv-46" value="M" style="rounded=0;whiteSpace=wrap;html=1;sketch=1;hachureGap=4;jiggle=2;curveFitting=1;fontFamily=Architects Daughter;fontSource=https%3A%2F%2Ffonts.googleapis.com%2Fcss%3Ffamily%3DArchitects%2BDaughter;fontSize=20;" vertex="1" parent="1">
          <mxGeometry x="-30" y="1120" width="40" height="30" as="geometry" />
        </mxCell>
        <mxCell id="BeaeA4GzhIFNbfuau6xv-47" value="5" style="rounded=0;whiteSpace=wrap;html=1;sketch=1;hachureGap=4;jiggle=2;curveFitting=1;fontFamily=Architects Daughter;fontSource=https%3A%2F%2Ffonts.googleapis.com%2Fcss%3Ffamily%3DArchitects%2BDaughter;fontSize=20;" vertex="1" parent="1">
          <mxGeometry x="370" y="1130" width="40" height="60" as="geometry" />
        </mxCell>
        <mxCell id="BeaeA4GzhIFNbfuau6xv-48" value="M" style="text;html=1;strokeColor=none;fillColor=none;align=center;verticalAlign=middle;whiteSpace=wrap;rounded=0;fontSize=20;fontFamily=Architects Daughter;" vertex="1" parent="1">
          <mxGeometry x="360" y="1100" width="60" height="30" as="geometry" />
        </mxCell>
        <mxCell id="BeaeA4GzhIFNbfuau6xv-51" value="retry=10" style="text;html=1;align=center;verticalAlign=middle;resizable=0;points=[];autosize=1;strokeColor=none;fillColor=none;fontSize=20;fontFamily=Architects Daughter;" vertex="1" parent="1">
          <mxGeometry x="-190" y="1080" width="100" height="40" as="geometry" />
        </mxCell>
        <mxCell id="BeaeA4GzhIFNbfuau6xv-52" value="&lt;div style=&quot;background-color:#282c34;color:#8a8a8a&quot;&gt;&lt;pre style=&quot;font-family:&#39;JetBrains Mono&#39;,monospace;font-size:16.5pt;&quot;&gt;enable.idempotence = true&lt;/pre&gt;&lt;/div&gt;" style="text;html=1;align=center;verticalAlign=middle;resizable=0;points=[];autosize=1;strokeColor=none;fillColor=none;fontSize=20;fontFamily=Architects Daughter;" vertex="1" parent="1">
          <mxGeometry x="-115" y="1033" width="350" height="80" as="geometry" />
        </mxCell>
        <mxCell id="BeaeA4GzhIFNbfuau6xv-53" value="PID" style="text;html=1;align=center;verticalAlign=middle;resizable=0;points=[];autosize=1;strokeColor=none;fillColor=none;fontSize=20;fontFamily=Architects Daughter;" vertex="1" parent="1">
          <mxGeometry x="-75" y="1203" width="50" height="40" as="geometry" />
        </mxCell>
        <mxCell id="BeaeA4GzhIFNbfuau6xv-54" value="SEQ" style="text;html=1;align=center;verticalAlign=middle;resizable=0;points=[];autosize=1;strokeColor=none;fillColor=none;fontSize=20;fontFamily=Architects Daughter;" vertex="1" parent="1">
          <mxGeometry x="10" y="1203" width="60" height="40" as="geometry" />
        </mxCell>
        <mxCell id="BeaeA4GzhIFNbfuau6xv-57" value="" style="edgeStyle=orthogonalEdgeStyle;rounded=0;sketch=1;hachureGap=4;jiggle=2;curveFitting=1;orthogonalLoop=1;jettySize=auto;html=1;fontFamily=Architects Daughter;fontSource=https%3A%2F%2Ffonts.googleapis.com%2Fcss%3Ffamily%3DArchitects%2BDaughter;fontSize=16;" edge="1" parent="1" source="BeaeA4GzhIFNbfuau6xv-55" target="BeaeA4GzhIFNbfuau6xv-56">
          <mxGeometry relative="1" as="geometry" />
        </mxCell>
        <mxCell id="BeaeA4GzhIFNbfuau6xv-55" value="P" style="rounded=0;whiteSpace=wrap;html=1;sketch=1;hachureGap=4;jiggle=2;curveFitting=1;fontFamily=Architects Daughter;fontSource=https%3A%2F%2Ffonts.googleapis.com%2Fcss%3Ffamily%3DArchitects%2BDaughter;fontSize=20;" vertex="1" parent="1">
          <mxGeometry x="-160" y="1335" width="120" height="60" as="geometry" />
        </mxCell>
        <mxCell id="BeaeA4GzhIFNbfuau6xv-59" value="" style="edgeStyle=orthogonalEdgeStyle;rounded=0;sketch=1;hachureGap=4;jiggle=2;curveFitting=1;orthogonalLoop=1;jettySize=auto;html=1;fontFamily=Architects Daughter;fontSource=https%3A%2F%2Ffonts.googleapis.com%2Fcss%3Ffamily%3DArchitects%2BDaughter;fontSize=16;" edge="1" parent="1" source="BeaeA4GzhIFNbfuau6xv-56" target="BeaeA4GzhIFNbfuau6xv-58">
          <mxGeometry relative="1" as="geometry" />
        </mxCell>
        <mxCell id="BeaeA4GzhIFNbfuau6xv-56" value="KAFKA" style="rounded=0;whiteSpace=wrap;html=1;sketch=1;hachureGap=4;jiggle=2;curveFitting=1;fontFamily=Architects Daughter;fontSource=https%3A%2F%2Ffonts.googleapis.com%2Fcss%3Ffamily%3DArchitects%2BDaughter;fontSize=20;" vertex="1" parent="1">
          <mxGeometry x="70" y="1250" width="120" height="230" as="geometry" />
        </mxCell>
        <mxCell id="BeaeA4GzhIFNbfuau6xv-58" value="C" style="whiteSpace=wrap;html=1;fontSize=20;fontFamily=Architects Daughter;rounded=0;sketch=1;hachureGap=4;jiggle=2;curveFitting=1;fontSource=https%3A%2F%2Ffonts.googleapis.com%2Fcss%3Ffamily%3DArchitects%2BDaughter;" vertex="1" parent="1">
          <mxGeometry x="300" y="1335" width="120" height="60" as="geometry" />
        </mxCell>
        <mxCell id="BeaeA4GzhIFNbfuau6xv-60" value="Message" style="rounded=1;whiteSpace=wrap;html=1;sketch=1;hachureGap=4;jiggle=2;curveFitting=1;fontFamily=Architects Daughter;fontSource=https%3A%2F%2Ffonts.googleapis.com%2Fcss%3Ffamily%3DArchitects%2BDaughter;fontSize=20;" vertex="1" parent="1">
          <mxGeometry x="-160" y="1260" width="110" height="50" as="geometry" />
        </mxCell>
      </root>
    </mxGraphModel>
  </diagram>
</mxfile>
